<mxfile host="app.diagrams.net" agent="Mozilla/5.0 (Windows NT 10.0; Win64; x64) AppleWebKit/537.36 (KHTML, like Gecko) Chrome/131.0.0.0 Safari/537.36" version="26.0.10">
  <diagram name="Page-1" id="19d8dcba-68ad-dc05-1034-9cf7b2a963f6">
    <mxGraphModel dx="2534" dy="1622" grid="1" gridSize="10" guides="1" tooltips="1" connect="1" arrows="1" fold="1" page="1" pageScale="1" pageWidth="1100" pageHeight="850" background="none" math="0" shadow="0">
      <root>
        <mxCell id="0" />
        <mxCell id="1" parent="0" />
        <mxCell id="218ae93e1282097f-19" value="" style="whiteSpace=wrap;html=1;rounded=1;shadow=0;comic=0;strokeWidth=2;fontFamily=Verdana;align=center;fontSize=10;" parent="1" vertex="1">
          <mxGeometry x="23" y="466" width="500" height="186" as="geometry" />
        </mxCell>
        <mxCell id="GQJggGvNAUMxXvSxQGlT-4" value="&lt;font style=&quot;font-size: 12px;&quot;&gt;VW&lt;/font&gt;&lt;div&gt;&lt;font style=&quot;font-size: 12px;&quot;&gt;MAIIS&lt;/font&gt;&lt;/div&gt;" style="text;strokeColor=none;fillColor=none;html=1;fontSize=24;fontStyle=1;verticalAlign=middle;align=center;" vertex="1" parent="1">
          <mxGeometry x="-2" y="493" width="100" height="40" as="geometry" />
        </mxCell>
        <mxCell id="GQJggGvNAUMxXvSxQGlT-18" value="&lt;span style=&quot;font-size: 12px;&quot;&gt;AUDI&lt;/span&gt;" style="text;strokeColor=none;fillColor=none;html=1;fontSize=24;fontStyle=1;verticalAlign=middle;align=center;" vertex="1" parent="1">
          <mxGeometry x="391" y="470" width="100" height="40" as="geometry" />
        </mxCell>
        <mxCell id="GQJggGvNAUMxXvSxQGlT-24" value="" style="endArrow=none;dashed=1;html=1;rounded=0;" edge="1" parent="1">
          <mxGeometry width="50" height="50" relative="1" as="geometry">
            <mxPoint x="258.5" y="487.5" as="sourcePoint" />
            <mxPoint x="259" y="632" as="targetPoint" />
          </mxGeometry>
        </mxCell>
        <mxCell id="GQJggGvNAUMxXvSxQGlT-25" value="" style="endArrow=none;dashed=1;html=1;rounded=0;" edge="1" parent="1">
          <mxGeometry width="50" height="50" relative="1" as="geometry">
            <mxPoint x="364" y="481" as="sourcePoint" />
            <mxPoint x="360" y="632" as="targetPoint" />
          </mxGeometry>
        </mxCell>
        <mxCell id="GQJggGvNAUMxXvSxQGlT-26" value="&lt;font style=&quot;font-size: 12px;&quot;&gt;VW/VWCO&lt;/font&gt;&lt;div&gt;&lt;font style=&quot;font-size: 12px;&quot;&gt;ET 2000&lt;/font&gt;&lt;/div&gt;" style="text;strokeColor=none;fillColor=none;html=1;fontSize=24;fontStyle=1;verticalAlign=middle;align=center;" vertex="1" parent="1">
          <mxGeometry x="248" y="470" width="100" height="40" as="geometry" />
        </mxCell>
        <mxCell id="GQJggGvNAUMxXvSxQGlT-36" value="" style="group" vertex="1" connectable="0" parent="1">
          <mxGeometry x="88" y="558" width="90.00000000000001" height="69.17999999999995" as="geometry" />
        </mxCell>
        <mxCell id="GQJggGvNAUMxXvSxQGlT-37" value="MM 1" style="text;html=1;strokeColor=none;fillColor=none;align=center;verticalAlign=middle;whiteSpace=wrap;rounded=1;shadow=0;comic=0;fontFamily=Verdana;fontSize=10;" vertex="1" parent="GQJggGvNAUMxXvSxQGlT-36">
          <mxGeometry y="44.17999999999995" width="90" height="25" as="geometry" />
        </mxCell>
        <mxCell id="GQJggGvNAUMxXvSxQGlT-38" value="" style="image;points=[];aspect=fixed;html=1;align=center;shadow=0;dashed=0;image=img/lib/allied_telesis/computer_and_terminals/Personal_Computer.svg;" vertex="1" parent="GQJggGvNAUMxXvSxQGlT-36">
          <mxGeometry x="28.700000000000003" width="32.6" height="44.18" as="geometry" />
        </mxCell>
        <mxCell id="218ae93e1282097f-12" value="" style="whiteSpace=wrap;html=1;rounded=1;shadow=0;comic=0;strokeWidth=2;fontFamily=Verdana;align=center;fontSize=10;" parent="1" vertex="1">
          <mxGeometry x="25" y="209" width="395" height="253" as="geometry" />
        </mxCell>
        <mxCell id="218ae93e1282097f-13" value="Toni (MM)" style="shape=actor;whiteSpace=wrap;html=1;rounded=0;shadow=0;comic=0;strokeWidth=1;fillColor=#CCCCCC;fontFamily=Verdana;align=center;strokeColor=none;labelPosition=center;verticalLabelPosition=bottom;verticalAlign=top;fontSize=10;" parent="1" vertex="1">
          <mxGeometry x="176" y="439.18000000000006" width="24" height="30" as="geometry" />
        </mxCell>
        <mxCell id="GQJggGvNAUMxXvSxQGlT-39" value="" style="group" vertex="1" connectable="0" parent="1">
          <mxGeometry x="158" y="558" width="90.00000000000001" height="69.17999999999995" as="geometry" />
        </mxCell>
        <mxCell id="GQJggGvNAUMxXvSxQGlT-40" value="ABAP 1" style="text;html=1;strokeColor=none;fillColor=none;align=center;verticalAlign=middle;whiteSpace=wrap;rounded=1;shadow=0;comic=0;fontFamily=Verdana;fontSize=10;" vertex="1" parent="GQJggGvNAUMxXvSxQGlT-39">
          <mxGeometry y="44.17999999999995" width="90" height="25" as="geometry" />
        </mxCell>
        <mxCell id="GQJggGvNAUMxXvSxQGlT-41" value="" style="image;points=[];aspect=fixed;html=1;align=center;shadow=0;dashed=0;image=img/lib/allied_telesis/computer_and_terminals/Personal_Computer.svg;" vertex="1" parent="GQJggGvNAUMxXvSxQGlT-39">
          <mxGeometry x="28.700000000000003" width="32.6" height="44.18" as="geometry" />
        </mxCell>
        <mxCell id="218ae93e1282097f-16" value="JoÃ£o (MM)" style="shape=actor;whiteSpace=wrap;html=1;rounded=0;shadow=0;comic=0;strokeWidth=1;fillColor=#CCCCCC;fontFamily=Verdana;align=center;strokeColor=none;labelPosition=center;verticalLabelPosition=bottom;verticalAlign=top;fontSize=10;" parent="1" vertex="1">
          <mxGeometry x="131" y="265" width="24" height="30" as="geometry" />
        </mxCell>
        <mxCell id="218ae93e1282097f-52" value="" style="edgeStyle=elbowEdgeStyle;rounded=1;html=1;labelBackgroundColor=none;endArrow=block;endFill=1;strokeColor=#4D4D4D;strokeWidth=2;fontFamily=Verdana;fontSize=10;" parent="1" source="6257edae8c83ed4a-21" target="218ae93e1282097f-19" edge="1">
          <mxGeometry relative="1" as="geometry" />
        </mxCell>
        <mxCell id="GQJggGvNAUMxXvSxQGlT-42" value="Marcio&lt;div&gt;(FI)&lt;/div&gt;" style="shape=actor;whiteSpace=wrap;html=1;rounded=0;shadow=0;comic=0;strokeWidth=1;fillColor=#CCCCCC;fontFamily=Verdana;align=center;strokeColor=none;labelPosition=center;verticalLabelPosition=bottom;verticalAlign=top;fontSize=10;" vertex="1" parent="1">
          <mxGeometry x="215" y="493" width="24" height="30" as="geometry" />
        </mxCell>
        <mxCell id="GQJggGvNAUMxXvSxQGlT-102" value="" style="group" vertex="1" connectable="0" parent="1">
          <mxGeometry x="24" y="556" width="90" height="69.17999999999995" as="geometry" />
        </mxCell>
        <mxCell id="GQJggGvNAUMxXvSxQGlT-34" value="SD 1" style="text;html=1;strokeColor=none;fillColor=none;align=center;verticalAlign=middle;whiteSpace=wrap;rounded=1;shadow=0;comic=0;fontFamily=Verdana;fontSize=10;" vertex="1" parent="GQJggGvNAUMxXvSxQGlT-102">
          <mxGeometry y="44.17999999999995" width="90" height="25" as="geometry" />
        </mxCell>
        <mxCell id="GQJggGvNAUMxXvSxQGlT-35" value="" style="image;points=[];aspect=fixed;html=1;align=center;shadow=0;dashed=0;image=img/lib/allied_telesis/computer_and_terminals/Personal_Computer.svg;" vertex="1" parent="GQJggGvNAUMxXvSxQGlT-102">
          <mxGeometry x="28.700000000000045" width="32.6" height="44.18" as="geometry" />
        </mxCell>
        <mxCell id="GQJggGvNAUMxXvSxQGlT-5" value="" style="edgeStyle=elbowEdgeStyle;rounded=1;html=1;labelBackgroundColor=none;endArrow=block;endFill=1;strokeColor=#4D4D4D;strokeWidth=2;fontFamily=Verdana;fontSize=10;exitX=0;exitY=0.5;exitDx=0;exitDy=0;entryX=1;entryY=0.474;entryDx=0;entryDy=0;entryPerimeter=0;" edge="1" parent="1" source="218ae93e1282097f-8" target="218ae93e1282097f-12">
          <mxGeometry relative="1" as="geometry">
            <mxPoint x="243.5" y="149" as="sourcePoint" />
            <mxPoint x="243.5" y="209" as="targetPoint" />
          </mxGeometry>
        </mxCell>
        <mxCell id="GQJggGvNAUMxXvSxQGlT-11" value="" style="group" vertex="1" connectable="0" parent="1">
          <mxGeometry x="40" y="355" width="90.00000000000001" height="69.17999999999995" as="geometry" />
        </mxCell>
        <mxCell id="218ae93e1282097f-58" value="MM 1" style="text;html=1;strokeColor=none;fillColor=none;align=center;verticalAlign=middle;whiteSpace=wrap;rounded=1;shadow=0;comic=0;fontFamily=Verdana;fontSize=10;" parent="GQJggGvNAUMxXvSxQGlT-11" vertex="1">
          <mxGeometry y="44.17999999999995" width="90" height="25" as="geometry" />
        </mxCell>
        <mxCell id="GQJggGvNAUMxXvSxQGlT-10" value="" style="image;points=[];aspect=fixed;html=1;align=center;shadow=0;dashed=0;image=img/lib/allied_telesis/computer_and_terminals/Personal_Computer.svg;" vertex="1" parent="GQJggGvNAUMxXvSxQGlT-11">
          <mxGeometry x="28.700000000000003" width="32.6" height="44.18" as="geometry" />
        </mxCell>
        <mxCell id="GQJggGvNAUMxXvSxQGlT-12" value="" style="group" vertex="1" connectable="0" parent="1">
          <mxGeometry x="110" y="355" width="90.00000000000001" height="69.17999999999995" as="geometry" />
        </mxCell>
        <mxCell id="GQJggGvNAUMxXvSxQGlT-13" value="ABAP 1" style="text;html=1;strokeColor=none;fillColor=none;align=center;verticalAlign=middle;whiteSpace=wrap;rounded=1;shadow=0;comic=0;fontFamily=Verdana;fontSize=10;" vertex="1" parent="GQJggGvNAUMxXvSxQGlT-12">
          <mxGeometry y="44.17999999999995" width="90" height="25" as="geometry" />
        </mxCell>
        <mxCell id="GQJggGvNAUMxXvSxQGlT-14" value="" style="image;points=[];aspect=fixed;html=1;align=center;shadow=0;dashed=0;image=img/lib/allied_telesis/computer_and_terminals/Personal_Computer.svg;" vertex="1" parent="GQJggGvNAUMxXvSxQGlT-12">
          <mxGeometry x="28.700000000000003" width="32.6" height="44.18" as="geometry" />
        </mxCell>
        <mxCell id="GQJggGvNAUMxXvSxQGlT-15" value="" style="group" vertex="1" connectable="0" parent="1">
          <mxGeometry x="180" y="355" width="90.00000000000001" height="69.17999999999995" as="geometry" />
        </mxCell>
        <mxCell id="GQJggGvNAUMxXvSxQGlT-16" value="ABAP 2" style="text;html=1;strokeColor=none;fillColor=none;align=center;verticalAlign=middle;whiteSpace=wrap;rounded=1;shadow=0;comic=0;fontFamily=Verdana;fontSize=10;" vertex="1" parent="GQJggGvNAUMxXvSxQGlT-15">
          <mxGeometry y="44.17999999999995" width="90" height="25" as="geometry" />
        </mxCell>
        <mxCell id="GQJggGvNAUMxXvSxQGlT-17" value="" style="image;points=[];aspect=fixed;html=1;align=center;shadow=0;dashed=0;image=img/lib/allied_telesis/computer_and_terminals/Personal_Computer.svg;" vertex="1" parent="GQJggGvNAUMxXvSxQGlT-15">
          <mxGeometry x="28.700000000000003" width="32.6" height="44.18" as="geometry" />
        </mxCell>
        <mxCell id="GQJggGvNAUMxXvSxQGlT-19" value="&lt;font style=&quot;font-size: 12px;&quot;&gt;VW&lt;/font&gt;" style="text;strokeColor=none;fillColor=none;html=1;fontSize=24;fontStyle=1;verticalAlign=middle;align=center;" vertex="1" parent="1">
          <mxGeometry x="136" y="209" width="100" height="40" as="geometry" />
        </mxCell>
        <mxCell id="GQJggGvNAUMxXvSxQGlT-20" value="&lt;span style=&quot;font-size: 12px;&quot;&gt;AUDI&lt;/span&gt;" style="text;strokeColor=none;fillColor=none;html=1;fontSize=24;fontStyle=1;verticalAlign=middle;align=center;" vertex="1" parent="1">
          <mxGeometry x="305" y="352" width="100" height="40" as="geometry" />
        </mxCell>
        <mxCell id="GQJggGvNAUMxXvSxQGlT-21" value="&lt;span style=&quot;font-size: 12px;&quot;&gt;VWCO&lt;/span&gt;" style="text;strokeColor=none;fillColor=none;html=1;fontSize=24;fontStyle=1;verticalAlign=middle;align=center;" vertex="1" parent="1">
          <mxGeometry x="311" y="275" width="100" height="40" as="geometry" />
        </mxCell>
        <mxCell id="GQJggGvNAUMxXvSxQGlT-23" value="" style="endArrow=none;dashed=1;html=1;rounded=0;" edge="1" parent="1">
          <mxGeometry width="50" height="50" relative="1" as="geometry">
            <mxPoint x="305" y="236" as="sourcePoint" />
            <mxPoint x="305" y="416" as="targetPoint" />
          </mxGeometry>
        </mxCell>
        <mxCell id="GQJggGvNAUMxXvSxQGlT-43" value="" style="whiteSpace=wrap;html=1;rounded=1;shadow=0;comic=0;strokeWidth=2;fontFamily=Verdana;align=center;fontSize=10;" vertex="1" parent="1">
          <mxGeometry x="40" y="-100" width="510" height="247" as="geometry" />
        </mxCell>
        <mxCell id="GQJggGvNAUMxXvSxQGlT-44" value="Toni (MM)" style="shape=actor;whiteSpace=wrap;html=1;rounded=0;shadow=0;comic=0;strokeWidth=1;fillColor=#CCCCCC;fontFamily=Verdana;align=center;strokeColor=none;labelPosition=center;verticalLabelPosition=bottom;verticalAlign=top;fontSize=10;" vertex="1" parent="1">
          <mxGeometry x="172" y="-37" width="24" height="30" as="geometry" />
        </mxCell>
        <mxCell id="GQJggGvNAUMxXvSxQGlT-45" value="JoÃ£o (MM)" style="shape=actor;whiteSpace=wrap;html=1;rounded=0;shadow=0;comic=0;strokeWidth=1;fillColor=#CCCCCC;fontFamily=Verdana;align=center;strokeColor=none;labelPosition=center;verticalLabelPosition=bottom;verticalAlign=top;fontSize=10;" vertex="1" parent="1">
          <mxGeometry x="236" y="-37" width="24" height="30" as="geometry" />
        </mxCell>
        <mxCell id="GQJggGvNAUMxXvSxQGlT-46" value="Ivo (SD)" style="shape=actor;whiteSpace=wrap;html=1;rounded=0;shadow=0;comic=0;strokeWidth=1;fillColor=#CCCCCC;fontFamily=Verdana;align=center;strokeColor=none;labelPosition=center;verticalLabelPosition=bottom;verticalAlign=top;fontSize=10;" vertex="1" parent="1">
          <mxGeometry x="295" y="-37" width="24" height="30" as="geometry" />
        </mxCell>
        <mxCell id="GQJggGvNAUMxXvSxQGlT-47" value="" style="whiteSpace=wrap;html=1;rounded=1;shadow=0;comic=0;strokeWidth=2;fontFamily=Verdana;align=center;fontSize=10;" vertex="1" parent="1">
          <mxGeometry x="44.5" y="-249" width="251" height="143" as="geometry" />
        </mxCell>
        <mxCell id="GQJggGvNAUMxXvSxQGlT-48" value="" style="edgeStyle=elbowEdgeStyle;rounded=1;html=1;labelBackgroundColor=none;endArrow=block;endFill=1;strokeColor=#4D4D4D;strokeWidth=2;fontFamily=Verdana;fontSize=10;" edge="1" parent="1" source="GQJggGvNAUMxXvSxQGlT-51" target="GQJggGvNAUMxXvSxQGlT-47">
          <mxGeometry relative="1" as="geometry" />
        </mxCell>
        <mxCell id="GQJggGvNAUMxXvSxQGlT-53" value="&lt;font style=&quot;font-size: 12px;&quot;&gt;VW&lt;br&gt;&lt;/font&gt;" style="text;strokeColor=none;fillColor=none;html=1;fontSize=24;fontStyle=1;verticalAlign=middle;align=center;" vertex="1" parent="1">
          <mxGeometry x="133.5" y="-258" width="100" height="40" as="geometry" />
        </mxCell>
        <mxCell id="GQJggGvNAUMxXvSxQGlT-54" value="" style="edgeStyle=elbowEdgeStyle;rounded=1;html=1;labelBackgroundColor=none;endArrow=block;endFill=1;strokeColor=#4D4D4D;strokeWidth=2;fontFamily=Verdana;fontSize=10;exitX=0.5;exitY=1;exitDx=0;exitDy=0;entryX=1;entryY=0.5;entryDx=0;entryDy=0;" edge="1" parent="1" source="GQJggGvNAUMxXvSxQGlT-49" target="GQJggGvNAUMxXvSxQGlT-43">
          <mxGeometry relative="1" as="geometry">
            <mxPoint x="253.5" y="-23" as="sourcePoint" />
            <mxPoint x="253.5" y="37" as="targetPoint" />
          </mxGeometry>
        </mxCell>
        <mxCell id="GQJggGvNAUMxXvSxQGlT-55" value="Dornellas (ABAP)" style="shape=actor;whiteSpace=wrap;html=1;rounded=0;shadow=0;comic=0;strokeWidth=1;fillColor=#CCCCCC;fontFamily=Verdana;align=center;strokeColor=none;labelPosition=center;verticalLabelPosition=bottom;verticalAlign=top;fontSize=10;" vertex="1" parent="1">
          <mxGeometry x="359" y="-37" width="24" height="30" as="geometry" />
        </mxCell>
        <mxCell id="GQJggGvNAUMxXvSxQGlT-56" value="" style="group" vertex="1" connectable="0" parent="1">
          <mxGeometry x="145" y="53" width="90.00000000000001" height="69.17999999999995" as="geometry" />
        </mxCell>
        <mxCell id="GQJggGvNAUMxXvSxQGlT-57" value="MM 1" style="text;html=1;strokeColor=none;fillColor=none;align=center;verticalAlign=middle;whiteSpace=wrap;rounded=1;shadow=0;comic=0;fontFamily=Verdana;fontSize=10;" vertex="1" parent="GQJggGvNAUMxXvSxQGlT-56">
          <mxGeometry y="44.17999999999995" width="90" height="25" as="geometry" />
        </mxCell>
        <mxCell id="GQJggGvNAUMxXvSxQGlT-58" value="" style="image;points=[];aspect=fixed;html=1;align=center;shadow=0;dashed=0;image=img/lib/allied_telesis/computer_and_terminals/Personal_Computer.svg;" vertex="1" parent="GQJggGvNAUMxXvSxQGlT-56">
          <mxGeometry x="28.700000000000003" width="32.6" height="44.18" as="geometry" />
        </mxCell>
        <mxCell id="GQJggGvNAUMxXvSxQGlT-59" value="" style="group" vertex="1" connectable="0" parent="1">
          <mxGeometry x="215" y="53" width="90.00000000000001" height="69.17999999999995" as="geometry" />
        </mxCell>
        <mxCell id="GQJggGvNAUMxXvSxQGlT-60" value="ABAP 1" style="text;html=1;strokeColor=none;fillColor=none;align=center;verticalAlign=middle;whiteSpace=wrap;rounded=1;shadow=0;comic=0;fontFamily=Verdana;fontSize=10;" vertex="1" parent="GQJggGvNAUMxXvSxQGlT-59">
          <mxGeometry y="44.17999999999995" width="90" height="25" as="geometry" />
        </mxCell>
        <mxCell id="GQJggGvNAUMxXvSxQGlT-61" value="" style="image;points=[];aspect=fixed;html=1;align=center;shadow=0;dashed=0;image=img/lib/allied_telesis/computer_and_terminals/Personal_Computer.svg;" vertex="1" parent="GQJggGvNAUMxXvSxQGlT-59">
          <mxGeometry x="28.700000000000003" width="32.6" height="44.18" as="geometry" />
        </mxCell>
        <mxCell id="GQJggGvNAUMxXvSxQGlT-62" value="" style="group" vertex="1" connectable="0" parent="1">
          <mxGeometry x="285" y="53" width="90.00000000000001" height="69.17999999999995" as="geometry" />
        </mxCell>
        <mxCell id="GQJggGvNAUMxXvSxQGlT-63" value="ABAP 2" style="text;html=1;strokeColor=none;fillColor=none;align=center;verticalAlign=middle;whiteSpace=wrap;rounded=1;shadow=0;comic=0;fontFamily=Verdana;fontSize=10;" vertex="1" parent="GQJggGvNAUMxXvSxQGlT-62">
          <mxGeometry y="44.17999999999995" width="90" height="25" as="geometry" />
        </mxCell>
        <mxCell id="GQJggGvNAUMxXvSxQGlT-64" value="" style="image;points=[];aspect=fixed;html=1;align=center;shadow=0;dashed=0;image=img/lib/allied_telesis/computer_and_terminals/Personal_Computer.svg;" vertex="1" parent="GQJggGvNAUMxXvSxQGlT-62">
          <mxGeometry x="28.700000000000003" width="32.6" height="44.18" as="geometry" />
        </mxCell>
        <mxCell id="GQJggGvNAUMxXvSxQGlT-66" value="&lt;font style=&quot;font-size: 12px;&quot;&gt;VW&lt;/font&gt;" style="text;strokeColor=none;fillColor=none;html=1;fontSize=24;fontStyle=1;verticalAlign=middle;align=center;" vertex="1" parent="1">
          <mxGeometry x="218" y="-100" width="100" height="40" as="geometry" />
        </mxCell>
        <mxCell id="GQJggGvNAUMxXvSxQGlT-73" value="Adriana Bernardeli (MM)" style="shape=actor;whiteSpace=wrap;html=1;rounded=0;shadow=0;comic=0;strokeWidth=1;fillColor=#CCCCCC;fontFamily=Verdana;align=center;strokeColor=none;labelPosition=center;verticalLabelPosition=bottom;verticalAlign=top;fontSize=10;" vertex="1" parent="1">
          <mxGeometry x="73.5" y="-125" width="24" height="30" as="geometry" />
        </mxCell>
        <mxCell id="GQJggGvNAUMxXvSxQGlT-75" value="Dornellas (ABAP)" style="shape=actor;whiteSpace=wrap;html=1;rounded=0;shadow=0;comic=0;strokeWidth=1;fillColor=#CCCCCC;fontFamily=Verdana;align=center;strokeColor=none;labelPosition=center;verticalLabelPosition=bottom;verticalAlign=top;fontSize=10;" vertex="1" parent="1">
          <mxGeometry x="139.5" y="-125" width="24" height="30" as="geometry" />
        </mxCell>
        <mxCell id="GQJggGvNAUMxXvSxQGlT-88" value="" style="whiteSpace=wrap;html=1;rounded=1;shadow=0;comic=0;strokeWidth=2;fontFamily=Verdana;align=center;fontSize=10;" vertex="1" parent="1">
          <mxGeometry x="310" y="-247" width="240" height="141" as="geometry" />
        </mxCell>
        <mxCell id="GQJggGvNAUMxXvSxQGlT-89" value="" style="edgeStyle=elbowEdgeStyle;rounded=1;html=1;labelBackgroundColor=none;endArrow=block;endFill=1;strokeColor=#4D4D4D;strokeWidth=2;fontFamily=Verdana;fontSize=10;" edge="1" parent="1" source="GQJggGvNAUMxXvSxQGlT-90" target="GQJggGvNAUMxXvSxQGlT-88">
          <mxGeometry relative="1" as="geometry" />
        </mxCell>
        <mxCell id="GQJggGvNAUMxXvSxQGlT-92" value="&lt;font style=&quot;font-size: 12px;&quot;&gt;VWCO&lt;br&gt;&lt;/font&gt;" style="text;strokeColor=none;fillColor=none;html=1;fontSize=24;fontStyle=1;verticalAlign=middle;align=center;" vertex="1" parent="1">
          <mxGeometry x="346" y="-256" width="100" height="40" as="geometry" />
        </mxCell>
        <mxCell id="GQJggGvNAUMxXvSxQGlT-93" value="Marucci (SD)" style="shape=actor;whiteSpace=wrap;html=1;rounded=0;shadow=0;comic=0;strokeWidth=1;fillColor=#CCCCCC;fontFamily=Verdana;align=center;strokeColor=none;labelPosition=center;verticalLabelPosition=bottom;verticalAlign=top;fontSize=10;" vertex="1" parent="1">
          <mxGeometry x="345" y="-122" width="24" height="30" as="geometry" />
        </mxCell>
        <mxCell id="GQJggGvNAUMxXvSxQGlT-94" value="Bertanha (ABAP)" style="shape=actor;whiteSpace=wrap;html=1;rounded=0;shadow=0;comic=0;strokeWidth=1;fillColor=#CCCCCC;fontFamily=Verdana;align=center;strokeColor=none;labelPosition=center;verticalLabelPosition=bottom;verticalAlign=top;fontSize=10;" vertex="1" parent="1">
          <mxGeometry x="411" y="-123" width="24" height="30" as="geometry" />
        </mxCell>
        <mxCell id="GQJggGvNAUMxXvSxQGlT-95" value="" style="group" vertex="1" connectable="0" parent="1">
          <mxGeometry x="455" y="-199" width="90.00000000000001" height="69.17999999999995" as="geometry" />
        </mxCell>
        <mxCell id="GQJggGvNAUMxXvSxQGlT-96" value="Lucas Cirqueira (ABAP)" style="text;html=1;strokeColor=none;fillColor=none;align=center;verticalAlign=middle;whiteSpace=wrap;rounded=1;shadow=0;comic=0;fontFamily=Verdana;fontSize=10;" vertex="1" parent="GQJggGvNAUMxXvSxQGlT-95">
          <mxGeometry y="44.17999999999995" width="90" height="25" as="geometry" />
        </mxCell>
        <mxCell id="GQJggGvNAUMxXvSxQGlT-97" value="" style="image;points=[];aspect=fixed;html=1;align=center;shadow=0;dashed=0;image=img/lib/allied_telesis/computer_and_terminals/Personal_Computer.svg;" vertex="1" parent="GQJggGvNAUMxXvSxQGlT-95">
          <mxGeometry x="28.700000000000003" width="32.6" height="44.18" as="geometry" />
        </mxCell>
        <mxCell id="GQJggGvNAUMxXvSxQGlT-98" value="" style="group" vertex="1" connectable="0" parent="1">
          <mxGeometry x="49.5" y="-344" width="200" height="50" as="geometry" />
        </mxCell>
        <mxCell id="GQJggGvNAUMxXvSxQGlT-51" value="GestÃ£o do AÃ§o&lt;div&gt;&lt;span style=&quot;font-weight: normal;&quot;&gt;Neuber&lt;/span&gt;&lt;/div&gt;" style="whiteSpace=wrap;html=1;rounded=1;shadow=0;comic=0;strokeWidth=2;fontFamily=Verdana;align=center;fontSize=12;fontStyle=1" vertex="1" parent="GQJggGvNAUMxXvSxQGlT-98">
          <mxGeometry width="200" height="50" as="geometry" />
        </mxCell>
        <mxCell id="GQJggGvNAUMxXvSxQGlT-52" value="" style="shape=actor;whiteSpace=wrap;html=1;rounded=0;shadow=0;comic=0;strokeWidth=1;fillColor=#CCCCCC;fontFamily=Verdana;align=center;strokeColor=none;fontSize=12;fontStyle=1" vertex="1" parent="GQJggGvNAUMxXvSxQGlT-98">
          <mxGeometry x="15" y="9" width="24" height="30" as="geometry" />
        </mxCell>
        <mxCell id="GQJggGvNAUMxXvSxQGlT-99" value="" style="group" vertex="1" connectable="0" parent="1">
          <mxGeometry x="338" y="-344" width="200" height="50" as="geometry" />
        </mxCell>
        <mxCell id="GQJggGvNAUMxXvSxQGlT-90" value="AutBank&lt;div&gt;&lt;span style=&quot;font-weight: normal;&quot;&gt;Everson&lt;/span&gt;&lt;/div&gt;" style="whiteSpace=wrap;html=1;rounded=1;shadow=0;comic=0;strokeWidth=2;fontFamily=Verdana;align=center;fontSize=12;fontStyle=1" vertex="1" parent="GQJggGvNAUMxXvSxQGlT-99">
          <mxGeometry width="200" height="50" as="geometry" />
        </mxCell>
        <mxCell id="GQJggGvNAUMxXvSxQGlT-91" value="" style="shape=actor;whiteSpace=wrap;html=1;rounded=0;shadow=0;comic=0;strokeWidth=1;fillColor=#CCCCCC;fontFamily=Verdana;align=center;strokeColor=none;fontSize=12;fontStyle=1" vertex="1" parent="GQJggGvNAUMxXvSxQGlT-99">
          <mxGeometry x="15" y="10" width="24" height="30" as="geometry" />
        </mxCell>
        <mxCell id="GQJggGvNAUMxXvSxQGlT-100" value="" style="group" vertex="1" connectable="0" parent="1">
          <mxGeometry x="620" y="-90" width="200" height="50" as="geometry" />
        </mxCell>
        <mxCell id="GQJggGvNAUMxXvSxQGlT-49" value="Squad SAP&lt;br&gt;&lt;div&gt;&lt;span style=&quot;font-weight: normal&quot;&gt;Neuber / Everson&lt;/span&gt;&lt;/div&gt;" style="whiteSpace=wrap;html=1;rounded=1;shadow=0;comic=0;strokeWidth=2;fontFamily=Verdana;align=center;fontSize=12;fontStyle=1" vertex="1" parent="GQJggGvNAUMxXvSxQGlT-100">
          <mxGeometry width="200" height="50" as="geometry" />
        </mxCell>
        <mxCell id="GQJggGvNAUMxXvSxQGlT-50" value="" style="shape=actor;whiteSpace=wrap;html=1;rounded=0;shadow=0;comic=0;strokeWidth=1;fillColor=#CCCCCC;fontFamily=Verdana;align=center;strokeColor=none;fontSize=12;fontStyle=1" vertex="1" parent="GQJggGvNAUMxXvSxQGlT-100">
          <mxGeometry x="14" y="10" width="24" height="30" as="geometry" />
        </mxCell>
        <mxCell id="218ae93e1282097f-17" value="Ivo (SD)" style="shape=actor;whiteSpace=wrap;html=1;rounded=0;shadow=0;comic=0;strokeWidth=1;fillColor=#CCCCCC;fontFamily=Verdana;align=center;strokeColor=none;labelPosition=center;verticalLabelPosition=bottom;verticalAlign=top;fontSize=10;" parent="1" vertex="1">
          <mxGeometry x="80" y="439.18000000000006" width="24" height="30" as="geometry" />
        </mxCell>
        <mxCell id="GQJggGvNAUMxXvSxQGlT-6" value="Dornellas (ABAP)" style="shape=actor;whiteSpace=wrap;html=1;rounded=0;shadow=0;comic=0;strokeWidth=1;fillColor=#CCCCCC;fontFamily=Verdana;align=center;strokeColor=none;labelPosition=center;verticalLabelPosition=bottom;verticalAlign=top;fontSize=10;" vertex="1" parent="1">
          <mxGeometry x="125" y="441" width="24" height="30" as="geometry" />
        </mxCell>
        <mxCell id="GQJggGvNAUMxXvSxQGlT-104" value="" style="group" vertex="1" connectable="0" parent="1">
          <mxGeometry x="580" y="566" width="200" height="50" as="geometry" />
        </mxCell>
        <mxCell id="6257edae8c83ed4a-21" value="&amp;nbsp; &amp;nbsp; Reforma TributÃ¡ria&lt;div&gt;&lt;span style=&quot;font-weight: normal;&quot;&gt;Daniela&lt;/span&gt;&lt;/div&gt;" style="whiteSpace=wrap;html=1;rounded=1;shadow=0;comic=0;strokeWidth=2;fontFamily=Verdana;align=center;fontSize=12;fontStyle=1" parent="GQJggGvNAUMxXvSxQGlT-104" vertex="1">
          <mxGeometry width="200" height="50" as="geometry" />
        </mxCell>
        <mxCell id="6257edae8c83ed4a-22" value="" style="shape=actor;whiteSpace=wrap;html=1;rounded=0;shadow=0;comic=0;strokeWidth=1;fillColor=#CCCCCC;fontFamily=Verdana;align=center;strokeColor=none;fontSize=12;fontStyle=1" parent="GQJggGvNAUMxXvSxQGlT-104" vertex="1">
          <mxGeometry x="14" y="10" width="24" height="30" as="geometry" />
        </mxCell>
        <mxCell id="GQJggGvNAUMxXvSxQGlT-105" value="" style="group" vertex="1" connectable="0" parent="1">
          <mxGeometry x="570" y="304" width="200" height="50" as="geometry" />
        </mxCell>
        <mxCell id="218ae93e1282097f-8" value="&lt;span&gt;MigraÃ§Ã£o para DRC&lt;/span&gt;&lt;div&gt;&lt;span style=&quot;font-weight: normal&quot;&gt;Daniela&lt;/span&gt;&lt;/div&gt;" style="whiteSpace=wrap;html=1;rounded=1;shadow=0;comic=0;strokeWidth=2;fontFamily=Verdana;align=center;fontSize=12;fontStyle=1" parent="GQJggGvNAUMxXvSxQGlT-105" vertex="1">
          <mxGeometry width="200" height="50" as="geometry" />
        </mxCell>
        <mxCell id="218ae93e1282097f-9" value="" style="shape=actor;whiteSpace=wrap;html=1;rounded=0;shadow=0;comic=0;strokeWidth=1;fillColor=#CCCCCC;fontFamily=Verdana;align=center;strokeColor=none;fontSize=12;fontStyle=1" parent="GQJggGvNAUMxXvSxQGlT-105" vertex="1">
          <mxGeometry x="14" y="10" width="24" height="30" as="geometry" />
        </mxCell>
        <mxCell id="GQJggGvNAUMxXvSxQGlT-76" value="" style="group" vertex="1" connectable="0" parent="1">
          <mxGeometry x="195" y="-199" width="90.00000000000001" height="69.17999999999995" as="geometry" />
        </mxCell>
        <mxCell id="GQJggGvNAUMxXvSxQGlT-77" value="Lucas Cirqueira (ABAP)" style="text;html=1;strokeColor=none;fillColor=none;align=center;verticalAlign=middle;whiteSpace=wrap;rounded=1;shadow=0;comic=0;fontFamily=Verdana;fontSize=10;" vertex="1" parent="GQJggGvNAUMxXvSxQGlT-76">
          <mxGeometry y="44.17999999999995" width="90" height="25" as="geometry" />
        </mxCell>
        <mxCell id="GQJggGvNAUMxXvSxQGlT-78" value="" style="image;points=[];aspect=fixed;html=1;align=center;shadow=0;dashed=0;image=img/lib/allied_telesis/computer_and_terminals/Personal_Computer.svg;" vertex="1" parent="GQJggGvNAUMxXvSxQGlT-76">
          <mxGeometry x="28.700000000000003" width="32.6" height="44.18" as="geometry" />
        </mxCell>
      </root>
    </mxGraphModel>
  </diagram>
</mxfile>
